<svg width="16" height="16" viewBox="0 0 16 16" fill="none" xmlns="http://www.w3.org/2000/svg">
<g clip-path="url(#clip0_305_8)">
<g clip-path="url(#clip1_305_8)">
<path fill-rule="evenodd" clip-rule="evenodd" d="M8 0C6.41775 0 4.87103 0.469192 3.55544 1.34824C2.23985 2.22729 1.21447 3.47672 0.608967 4.93853C0.00346625 6.40034 -0.15496 8.00887 0.153721 9.56072C0.462403 11.1126 1.22433 12.538 2.34315 13.6569C3.46197 14.7757 4.88743 15.5376 6.43928 15.8463C7.99113 16.155 9.59966 15.9965 11.0615 15.391C12.5233 14.7855 13.7727 13.7602 14.6518 12.4446C15.5308 11.129 16 9.58225 16 8C16 5.87827 15.1571 3.84344 13.6569 2.34315C12.1566 0.842855 10.1217 0 8 0V0ZM6.24 3.76C6.7 3.76 6.84 3.76 8 3.76C9.16 3.76 9.3 3.76 9.76 3.76C10.1021 3.77082 10.44 3.83841 10.76 3.96C11.0413 4.06957 11.2967 4.23637 11.5102 4.44982C11.7236 4.66327 11.8904 4.91872 12 5.2C12.1216 5.51996 12.1892 5.85789 12.2 6.2C12.2 6.66 12.2 6.8 12.2 7.96C12.2 9.12 12.2 9.26 12.2 9.72C12.1909 10.0623 12.1233 10.4005 12 10.72C11.8938 11.0059 11.7266 11.2653 11.51 11.48C11.2988 11.6961 11.0428 11.8634 10.76 11.97C10.44 12.0916 10.1021 12.1592 9.76 12.17C9.3 12.17 9.16 12.17 8 12.17C6.84 12.17 6.7 12.17 6.24 12.17C5.8977 12.1609 5.55948 12.0932 5.24 11.97C4.96324 11.8692 4.71025 11.7124 4.49689 11.5094C4.28352 11.3063 4.11436 11.0614 4 10.79C3.87675 10.4705 3.80911 10.1323 3.8 9.79C3.8 9.33 3.8 9.19 3.8 8.03C3.8 6.87 3.8 6.73 3.8 6.27C3.81082 5.92789 3.87841 5.58996 4 5.27C4.10663 4.98723 4.27388 4.73123 4.49 4.52C4.69019 4.29732 4.93568 4.12002 5.21 4C5.53642 3.85964 5.88517 3.77837 6.24 3.76Z" fill="#4F4F4F"/>
<path fill-rule="evenodd" clip-rule="evenodd" d="M7.6193 4.5H7.9993C9.1393 4.5 9.2693 4.5 9.7193 4.5C9.98821 4.5063 10.2546 4.55351 10.5093 4.64C10.6994 4.71855 10.8675 4.84209 10.9993 5C11.1438 5.13521 11.2536 5.3033 11.3193 5.49C11.4153 5.74597 11.466 6.01666 11.4693 6.29C11.4693 6.74 11.4693 6.87 11.4693 8.01C11.4693 9.15 11.4693 9.28 11.4693 9.73C11.4665 10.0001 11.4157 10.2676 11.3193 10.52C11.2479 10.7039 11.1391 10.8708 10.9996 11.0103C10.8601 11.1498 10.6932 11.2586 10.5093 11.33C10.2569 11.4264 9.98944 11.4772 9.7193 11.48C9.2693 11.48 9.1393 11.48 7.9993 11.48C6.8593 11.48 6.7193 11.48 6.2693 11.48C5.99928 11.476 5.732 11.4252 5.4793 11.33C5.29518 11.26 5.13057 11.1468 4.9993 11C4.85594 10.8638 4.74636 10.696 4.6793 10.51C4.58289 10.2576 4.5321 9.99014 4.5293 9.72C4.5293 9.27 4.5293 9.14 4.5293 8C4.5293 6.86 4.5293 6.72 4.5293 6.27C4.53334 5.99998 4.58409 5.73271 4.6793 5.48C4.75066 5.29614 4.85954 5.12916 4.99899 4.9897C5.13845 4.85024 5.30543 4.74136 5.4893 4.67C5.74164 4.57464 6.00955 4.52716 6.2793 4.53C6.6793 4.53 6.8293 4.53 7.6293 4.53L7.6193 4.5ZM10.2793 5.21C10.2115 5.20867 10.1441 5.22088 10.0811 5.24591C10.018 5.27095 9.96061 5.3083 9.91219 5.35579C9.86377 5.40328 9.8253 5.45996 9.79905 5.52249C9.7728 5.58503 9.75928 5.65218 9.7593 5.72C9.75731 5.82325 9.78611 5.92475 9.84203 6.01157C9.89795 6.09839 9.97845 6.16659 10.0733 6.20749C10.1681 6.24838 10.273 6.26012 10.3745 6.2412C10.476 6.22228 10.5696 6.17356 10.6433 6.10125C10.717 6.02894 10.7676 5.93631 10.7885 5.83518C10.8093 5.73405 10.7996 5.62898 10.7606 5.53338C10.7216 5.43778 10.6549 5.35597 10.5692 5.29838C10.4835 5.24079 10.3826 5.21002 10.2793 5.21V5.21ZM5.8093 8C5.8093 7.56686 5.93774 7.14345 6.17838 6.7833C6.41902 6.42316 6.76105 6.14246 7.16122 5.9767C7.56139 5.81095 8.00173 5.76758 8.42654 5.85208C8.85136 5.93658 9.24158 6.14516 9.54786 6.45144C9.85414 6.75771 10.0627 7.14793 10.1472 7.57275C10.2317 7.99757 10.1883 8.43791 10.0226 8.83808C9.85684 9.23825 9.57614 9.58028 9.216 9.82092C8.85585 10.0616 8.43244 10.19 7.9993 10.19C7.41847 10.19 6.86144 9.95927 6.45073 9.54856C6.04003 9.13786 5.8093 8.58082 5.8093 8V8Z" fill="#4F4F4F"/>
<path d="M8.00011 6.58011C8.28096 6.58011 8.55551 6.6634 8.78902 6.81943C9.02254 6.97546 9.20455 7.19723 9.31202 7.4567C9.4195 7.71617 9.44762 8.00169 9.39283 8.27714C9.33804 8.5526 9.2028 8.80561 9.00421 9.00421C8.80561 9.2028 8.5526 9.33804 8.27714 9.39283C8.00169 9.44762 7.71617 9.4195 7.4567 9.31202C7.19723 9.20455 6.97546 9.02254 6.81943 8.78902C6.6634 8.55551 6.58011 8.28096 6.58011 8.00011C6.57878 7.81327 6.61461 7.62802 6.6855 7.45513C6.75639 7.28225 6.86093 7.12518 6.99306 6.99306C7.12518 6.86093 7.28225 6.75639 7.45513 6.6855C7.62802 6.61461 7.81327 6.57878 8.00011 6.58011V6.58011Z" fill="#4F4F4F"/>
</g>
</g>
<defs>
<clipPath id="clip0_305_8">
<rect width="16" height="16" fill="white"/>
</clipPath>
<clipPath id="clip1_305_8">
<rect width="16" height="16" fill="white"/>
</clipPath>
</defs>
</svg>
