<svg width="16" height="16" viewBox="0 0 16 16" fill="none" xmlns="http://www.w3.org/2000/svg">
<g clip-path="url(#clip0_305_17)">
<path fill-rule="evenodd" clip-rule="evenodd" d="M8 0C3.58172 0 0 3.58172 0 8C0 12.4182 3.58172 16 8 16C12.4183 16 16 12.4182 16 8C16 3.58172 12.4183 0 8 0ZM8.65219 10.5252C8.57331 10.6083 8.4193 10.6251 8.4193 10.6251H7.90928C7.90928 10.6251 6.78407 10.6915 5.79282 9.67874C4.71185 8.57382 3.75733 6.3816 3.75733 6.3816C3.75733 6.3816 3.70224 6.2378 3.76192 6.16857C3.82912 6.09032 4.01234 6.0854 4.01234 6.0854L5.23147 6.07761C5.23147 6.07761 5.34624 6.09605 5.42846 6.15546C5.49649 6.20462 5.53447 6.29598 5.53447 6.29598C5.53447 6.29598 5.73147 6.78514 5.99232 7.22761C6.50193 8.09163 6.73899 8.28049 6.91178 8.1879C7.16387 8.05311 7.08833 6.96663 7.08833 6.96663C7.08833 6.96663 7.09292 6.57251 6.96145 6.39676C6.85961 6.26075 6.66762 6.221 6.5829 6.20994C6.51403 6.20093 6.62672 6.04443 6.7728 5.97438C6.99233 5.86909 7.37965 5.86294 7.8375 5.86745C8.19435 5.87114 8.29702 5.89285 8.43642 5.92604C8.75995 6.00267 8.74985 6.24827 8.72805 6.77832C8.72153 6.93684 8.71397 7.1208 8.71397 7.3333C8.71397 7.38105 8.71255 7.43195 8.71109 7.48432C8.70352 7.75587 8.69486 8.06683 8.87716 8.18257C8.97064 8.24157 9.19894 8.19118 9.77032 7.23907C10.0412 6.7876 10.244 6.25706 10.244 6.25706C10.244 6.25706 10.2887 6.16242 10.3576 6.12187C10.4281 6.08048 10.5232 6.09318 10.5232 6.09318L11.8062 6.0854C11.8062 6.0854 12.1919 6.03993 12.2541 6.21117C12.3196 6.39021 12.1101 6.80891 11.5859 7.49471C11.0903 8.14328 10.8482 8.38342 10.8686 8.5948C10.8836 8.75048 11.041 8.89053 11.3442 9.16664C11.9743 9.74091 12.1432 10.0431 12.1838 10.1156C12.1872 10.1217 12.1897 10.1261 12.1915 10.129C12.474 10.5891 11.878 10.6251 11.878 10.6251L10.7382 10.6407C10.7382 10.6407 10.4936 10.6882 10.1714 10.4711C10.0026 10.3574 9.83769 10.1718 9.6806 9.99502C9.4407 9.72504 9.21907 9.47561 9.02991 9.53453C8.7123 9.63367 8.7219 10.3052 8.7219 10.3052C8.7219 10.3052 8.7244 10.4489 8.65219 10.5252Z" fill="#4F4F4F"/>
</g>
<defs>
<clipPath id="clip0_305_17">
<rect width="16" height="16" fill="white"/>
</clipPath>
</defs>
</svg>
